{"title":"MEHERBAAN TEASER (BANG BANG) 4K MASTERED [PhYsIcIaN].mp4","uid":11249538,"size":483787637,"categoryP":"video","categoryS":"other","magnet":"?xt=urn:btih:ea4429fcf25142b67b0ffd88ce57b288a1744c2c&amp;dn=MEHERBAAN+TEASER+%28BANG+BANG%29+4K+MASTERED+%5BPhYsIcIaN%5D.mp4&amp;tr=udp%3A%2F%2Ftracker.openbittorrent.com%3A80&amp;tr=udp%3A%2F%2Fopen.demonii.com%3A1337&amp;tr=udp%3A%2F%2Ftracker.coppersurfer.tk%3A6969&amp;tr=udp%3A%2F%2Fexodus.desync.com%3A6969","seeders":0,"leechers":1,"uploader":"physician","files":1,"time":1413764722,"description":"General\nComplete name                            : D:SONGSVIDEOMEHERBAAN TEASER (BANG BANG) 4K MASTERED [PhYsIcIaN].mp4\nFormat                                   : MPEG-4\nFormat profile                           : Base Media / Version 2\nCodec ID                                 : mp42\nFile size                                : 461 MiB\nDuration                                 : 2mn 30s\nOverall bit rate mode                    : Variable\nOverall bit rate                         : 25.6 Mbps\nEncoded date                             : UTC 2014-10-20 05:21:09\nTagged date                              : UTC 2014-10-20 05:21:31\nÂ©TIM                                     : 00:00:00:00\nÂ©TSC                                     : 25\nÂ©TSZ                                     : 1\n\nVideo\nID                                       : 1\nFormat                                   : AVC\nFormat/Info                              : Advanced Video Codec\nFormat profile                           : &lt;a class=&quot;__cf_email__&quot; href=&quot;/cdn-cgi/l/email-protection&quot; data-cfemail=&quot;470a262e29070b726976&quot;&gt;[email&amp;#160;protected]&lt;/a&gt;&lt;script cf-hash='f9e31' type=&quot;text/javascript&quot;&gt;\n/* &lt;![CDATA[ */!function(){try{var t=&quot;currentScript&quot;in document?document.currentScript:function(){for(var t=document.getElementsByTagName(&quot;script&quot;),e=t.length;e--;)if(t[e].getAttribute(&quot;cf-hash&quot;))return t[e]}();if(t&amp;&amp;t.previousSibling){var e,r,n,i,c=t.previousSibling,a=c.getAttribute(&quot;data-cfemail&quot;);if(a){for(e=&quot;&quot;,r=parseInt(a.substr(0,2),16),n=2;a.length-n;n+=2)i=parseInt(a.substr(n,2),16)^r,e+=String.fromCharCode(i);e=document.createTextNode(e),c.parentNode.replaceChild(e,c)}}}catch(u){}}();/* ]]&gt; */&lt;/script&gt;\nFormat settings, CABAC                   : Yes\nFormat settings, ReFrames                : 3 frames\nCodec ID                                 : avc1\nCodec ID/Info                            : Advanced Video Coding\nDuration                                 : 2mn 30s\nBit rate mode                            : Variable\nBit rate                                 : 25.0 Mbps\nWidth                                    : 3 840 pixels\nHeight                                   : 2 160 pixels\nDisplay aspect ratio                     : 16:9\nFrame rate mode                          : Constant\nFrame rate                               : 25.000 fps\nStandard                                 : PAL\nColor space                              : YUV\nChroma subsampling                       : 4:2:0\nBit depth                                : 8 bits\nScan type                                : Progressive\nBits/(Pixel*Frame)                       : 0.121\nStream size                              : 450 MiB (97%)\nLanguage                                 : English\nEncoded date                             : UTC 2014-10-20 05:21:09\nTagged date                              : UTC 2014-10-20 05:21:09\n\nAudio\nID                                       : 2\nFormat                                   : AAC\nFormat/Info                              : Advanced Audio Codec\nFormat profile                           : LC\nCodec ID                                 : 40\nDuration                                 : 2mn 30s\nSource duration                          : 2mn 30s\nBit rate mode                            : Variable\nBit rate                                 : 637 Kbps\nMaximum bit rate                         : 774 Kbps\nChannel(s)                               : 6 channels\nChannel positions                        : Front: L C R, Side: L R, LFE\nSampling rate                            : 48.0 KHz\nCompression mode                         : Lossy\nStream size                              : 11.5 MiB (2%)\nSource stream size                       : 11.5 MiB (2%)\nLanguage                                 : English\nEncoded date                             : UTC 2014-10-20 05:21:09\nTagged date                              : UTC 2014-10-20 05:21:09\nscreens","torrent":{"xt":"urn:btih:ea4429fcf25142b67b0ffd88ce57b288a1744c2c","amp;dn":"MEHERBAAN+TEASER+%28BANG+BANG%29+4K+MASTERED+%5BPhYsIcIaN%5D.mp4","amp;tr":["udp%3A%2F%2Ftracker.openbittorrent.com%3A80","udp%3A%2F%2Fopen.demonii.com%3A1337","udp%3A%2F%2Ftracker.coppersurfer.tk%3A6969","udp%3A%2F%2Fexodus.desync.com%3A6969"],"infoHash":"ea4429fcf25142b67b0ffd88ce57b288a1744c2c","infoHashBuffer":{"type":"Buffer","data":[234,68,41,252,242,81,66,182,123,15,253,136,206,87,178,136,161,116,76,44]},"announce":[],"urlList":[]}}